# xmcd CD database file
#
# Track frame offsets:
#	150
#	14410
#	26385
#	46030
#	62745
#	79760
#	98715
#	113770
#	127430
#	144305
#	165575
#	174185
#	193145
#	206965
#	224645
#	240960
#	258525
#	277420
#	292165
#	311075
#	325455
#	343495
#
# Disc length: 4762 seconds
#
# Revision: 0
# Processed by: cddbd v1.5.2PL0 Copyright (c) Steve Scherf et al.
# Submitted via: CDex 1.51
#
DISCID=5e129816
DTITLE=Buffalo C. Wayne - Soul Blood
DYEAR=2008
DGENRE=Country
TTITLE0=Love is a lie
TTITLE1=Paris by Night
TTITLE2=Have a Party
TTITLE3=No Money
TTITLE4=Waters run dry
TTITLE5=The Mirror
TTITLE6=Honky tonking no more
TTITLE7=Nothing's for free
TTITLE8=Memories
TTITLE9=If you can't forgive
TTITLE10=King of the neonlight
TTITLE11=When I was young
TTITLE12=Black and white pony
TTITLE13=Her Daddy's got a gun
TTITLE14=Music in my feet
TTITLE15=Revolutionary
TTITLE16=Fly away
TTITLE17=Blame it on me
TTITLE18=No more stepping stones
TTITLE19=My friend in Houston
TTITLE20=Purple tear
TTITLE21=Roll on Big Mama
EXTD=YEAR: 2008
EXTT0=
EXTT1=
EXTT2=
EXTT3=
EXTT4=
EXTT5=
EXTT6=
EXTT7=
EXTT8=
EXTT9=
EXTT10=
EXTT11=
EXTT12=
EXTT13=
EXTT14=
EXTT15=
EXTT16=
EXTT17=
EXTT18=
EXTT19=
EXTT20=
EXTT21=
PLAYORDER=
